SplineFontDB: 3.0
FontName: lowpoly
FullName: lowpoly
FamilyName: lowpoly
Weight: Regular
Copyright: Copyright (c) 2015, Evan Todd
UComments: "2015-8-1: Created with FontForge (http://fontforge.org)"
Version: 001.000
ItalicAngle: 0
UnderlinePosition: -100
UnderlineWidth: 50
Ascent: 800
Descent: 200
InvalidEm: 0
LayerCount: 2
Layer: 0 0 "Back" 1
Layer: 1 0 "Fore" 0
XUID: [1021 151 -2063141499 29046]
StyleMap: 0x0000
FSType: 0
OS2Version: 0
OS2_WeightWidthSlopeOnly: 0
OS2_UseTypoMetrics: 1
CreationTime: 1438440159
ModificationTime: 1438471627
OS2TypoAscent: 0
OS2TypoAOffset: 1
OS2TypoDescent: 0
OS2TypoDOffset: 1
OS2TypoLinegap: 90
OS2WinAscent: 0
OS2WinAOffset: 1
OS2WinDescent: 0
OS2WinDOffset: 1
HheadAscent: 0
HheadAOffset: 1
HheadDescent: 0
HheadDOffset: 1
OS2Vendor: 'PfEd'
MarkAttachClasses: 1
DEI: 91125
Encoding: ISO8859-1
UnicodeInterp: none
NameList: AGL For New Fonts
DisplaySize: -48
AntiAlias: 1
FitToEm: 0
WidthSeparation: 100
WinInfo: 32 16 4
BeginPrivate: 0
EndPrivate
BeginChars: 256 94

StartChar: A
Encoding: 65 65 0
Width: 555
VWidth: 0
Flags: MW
LayerCount: 2
Fore
SplineSet
221.620117188 698.028320312 m 1
 330.50390625 698.028320312 l 1
 509.125 361.453125 l 1
 509.125 -0.884765625 l 1
 415.899414062 -0.884765625 l 1
 415.899414062 302.323242188 l 1
 136.225585938 302.323242188 l 1
 136.225585938 -0.884765625 l 1
 43 -0.884765625 l 1
 43 361.453125 l 1
 221.620117188 698.028320312 l 1
276.0625 601.708007812 m 1
 166.6328125 395.547851562 l 1
 385.4921875 395.547851562 l 1
 276.0625 601.708007812 l 1
EndSplineSet
Validated: 1
EndChar

StartChar: B
Encoding: 66 66 1
Width: 562
VWidth: 0
Flags: MW
LayerCount: 2
Fore
SplineSet
49 701.6953125 m 1
 393.358398438 701.6953125 l 1
 515.806640625 579.247070312 l 1
 515.806640625 428.2578125 l 1
 439.469726562 350.69140625 l 1
 515.806640625 273.170898438 l 1
 515.806640625 122.135742188 l 1
 393.358398438 -0.267578125 l 1
 95.6123046875 -0.267578125 l 1
 49 -0.267578125 l 1
 49 701.6953125 l 1
142.224609375 608.470703125 m 1
 142.224609375 397.986328125 l 1
 355.212890625 397.986328125 l 1
 422.58203125 466.44921875 l 1
 422.58203125 540.646484375 l 1
 354.756835938 608.470703125 l 1
 142.224609375 608.470703125 l 1
142.224609375 304.76171875 m 1
 142.224609375 92.9580078125 l 1
 354.756835938 92.9580078125 l 1
 422.58203125 160.782226562 l 1
 422.58203125 234.979492188 l 1
 353.892578125 304.76171875 l 1
 142.224609375 304.76171875 l 1
EndSplineSet
Validated: 1
EndChar

StartChar: C
Encoding: 67 67 2
Width: 545
VWidth: 0
Flags: MW
LayerCount: 2
Fore
SplineSet
165.448242188 701.514648438 m 1
 401.924804688 701.514648438 l 1
 510.671875 592.721679688 l 1
 444.713867188 526.809570312 l 1
 363.32421875 608.290039062 l 1
 204.049804688 608.290039062 l 1
 136.224609375 540.46484375 l 1
 136.224609375 160.6015625 l 1
 204.049804688 92.7763671875 l 1
 363.32421875 92.7763671875 l 1
 444.713867188 174.211914062 l 1
 510.671875 108.344726562 l 1
 401.924804688 -0.4482421875 l 1
 165.448242188 -0.4482421875 l 1
 43 121.955078125 l 1
 43 579.06640625 l 1
 165.448242188 701.514648438 l 1
EndSplineSet
Validated: 1
EndChar

StartChar: D
Encoding: 68 68 3
Width: 563
VWidth: 0
Flags: MW
LayerCount: 2
Fore
SplineSet
49 701.962890625 m 1
 392.67578125 701.962890625 l 1
 515.078125 579.514648438 l 1
 515.078125 122.403320312 l 1
 392.67578125 0 l 1
 49 0 l 1
 49 655.350585938 l 1
 49 701.962890625 l 1
142.224609375 608.73828125 m 1
 142.224609375 93.224609375 l 1
 354.028320312 93.224609375 l 1
 421.853515625 161.049804688 l 1
 421.853515625 540.9140625 l 1
 354.028320312 608.73828125 l 1
 142.224609375 608.73828125 l 1
EndSplineSet
Validated: 1
EndChar

StartChar: E
Encoding: 69 69 4
Width: 559
VWidth: 0
Flags: MW
LayerCount: 2
Fore
SplineSet
49 701.962890625 m 1
 515.125 701.962890625 l 1
 515.125 608.73828125 l 1
 142.225585938 608.73828125 l 1
 142.225585938 398.25390625 l 1
 282.0625 398.25390625 l 1
 282.0625 305.029296875 l 1
 142.225585938 305.029296875 l 1
 142.225585938 93.224609375 l 1
 515.125 93.224609375 l 1
 515.125 0 l 1
 49 0 l 1
 49 305.029296875 l 1
 49 398.25390625 l 1
 49 701.962890625 l 1
EndSplineSet
Validated: 1
EndChar

StartChar: F
Encoding: 70 70 5
Width: 557
VWidth: 0
Flags: MW
LayerCount: 2
Fore
SplineSet
49 700.415039062 m 1
 515.125 700.415039062 l 1
 515.125 607.190429688 l 1
 142.225585938 607.190429688 l 1
 142.225585938 396.706054688 l 1
 282.0625 396.706054688 l 1
 282.0625 303.481445312 l 1
 142.225585938 303.481445312 l 1
 142.225585938 0 l 1
 49 0 l 1
 49 303.481445312 l 1
 49 396.706054688 l 1
 49 700.415039062 l 1
EndSplineSet
Validated: 1
EndChar

StartChar: G
Encoding: 71 71 6
Width: 569
VWidth: 0
Flags: MW
LayerCount: 2
Fore
SplineSet
165.448242188 701.962890625 m 1
 401.924804688 701.962890625 l 1
 510.671875 593.169921875 l 1
 444.713867188 527.2578125 l 1
 363.32421875 608.73828125 l 1
 204.049804688 608.73828125 l 1
 136.224609375 540.9140625 l 1
 136.224609375 161.049804688 l 1
 204.049804688 93.224609375 l 1
 363.32421875 93.224609375 l 1
 431.102539062 161.049804688 l 1
 431.102539062 305.029296875 l 1
 282.071289062 305.029296875 l 1
 282.071289062 398.25390625 l 1
 524.328125 398.25390625 l 1
 524.328125 122.44921875 l 1
 401.924804688 0 l 1
 165.448242188 0 l 1
 43 122.403320312 l 1
 43 579.514648438 l 1
 165.448242188 701.962890625 l 1
EndSplineSet
Validated: 1
EndChar

StartChar: H
Encoding: 72 72 7
Width: 566
VWidth: 0
Flags: MW
LayerCount: 2
Fore
SplineSet
49 699.641601562 m 1
 142.2265625 699.641601562 l 1
 142.2265625 388.649414062 l 1
 421.947265625 388.649414062 l 1
 421.947265625 699.641601562 l 1
 515.171875 699.641601562 l 1
 515.171875 0 l 1
 421.947265625 0 l 1
 421.947265625 295.424804688 l 1
 142.272460938 295.424804688 l 1
 142.272460938 0 l 1
 49.0478515625 0 l 1
 49 699.641601562 l 1
EndSplineSet
Validated: 1
EndChar

StartChar: I
Encoding: 73 73 8
Width: 192
VWidth: 0
Flags: MW
LayerCount: 2
Fore
SplineSet
49 699.641601562 m 5
 142.224609375 699.641601562 l 5
 142.271484375 0 l 5
 49.046875 0 l 5
 49 699.641601562 l 5
EndSplineSet
Validated: 1
EndChar

StartChar: J
Encoding: 74 74 9
Width: 544
VWidth: 0
Flags: MW
LayerCount: 2
Fore
SplineSet
400.447265625 701.052734375 m 1
 493.671875 701.052734375 l 1
 493.671875 122.403320312 l 1
 371.22265625 0 l 1
 134.747070312 0 l 1
 26 108.79296875 l 1
 91.9580078125 174.66015625 l 1
 173.393554688 93.224609375 l 1
 332.622070312 93.224609375 l 1
 400.447265625 161.049804688 l 1
 400.447265625 701.052734375 l 1
EndSplineSet
Validated: 1
EndChar

StartChar: K
Encoding: 75 75 10
Width: 565
VWidth: 0
Flags: MW
LayerCount: 2
Fore
SplineSet
49 700.096679688 m 1
 142.225585938 700.096679688 l 1
 142.225585938 396.706054688 l 1
 291.89453125 396.706054688 l 1
 422.946289062 528.03125 l 1
 422.946289062 699.186523438 l 1
 516.171875 699.186523438 l 1
 516.171875 489.430664062 l 1
 376.880859375 349.866210938 l 1
 516.171875 209.801757812 l 1
 516.171875 0.0908203125 l 1
 422.946289062 0.0908203125 l 1
 422.946289062 171.336914062 l 1
 291.530273438 303.481445312 l 1
 142.225585938 303.481445312 l 1
 142.225585938 0 l 1
 49 0 l 1
 49 700.096679688 l 1
EndSplineSet
Validated: 1
EndChar

StartChar: L
Encoding: 76 76 11
Width: 554
VWidth: 0
Flags: MW
LayerCount: 2
Fore
SplineSet
49 701.64453125 m 1
 142.225585938 701.64453125 l 1
 142.225585938 93.224609375 l 1
 515.125 93.224609375 l 1
 515.125 0 l 1
 49 0 l 1
 49 701.64453125 l 1
EndSplineSet
Validated: 1
EndChar

StartChar: M
Encoding: 77 77 12
Width: 566
VWidth: 0
Flags: MW
LayerCount: 2
Fore
SplineSet
49 699.641601562 m 1
 142.626953125 699.514648438 l 1
 282.107421875 436.682617188 l 1
 421.60546875 699.547851562 l 1
 515.21484375 699.641601562 l 1
 515.21484375 0 l 1
 421.990234375 0 l 1
 421.990234375 501.311523438 l 1
 336.548828125 340.353515625 l 1
 227.665039062 340.353515625 l 1
 142.224609375 501.311523438 l 1
 142.271484375 0 l 1
 49.046875 0 l 1
 49 699.641601562 l 1
EndSplineSet
Validated: 1
EndChar

StartChar: N
Encoding: 78 78 13
Width: 566
VWidth: 0
Flags: MW
LayerCount: 2
Fore
SplineSet
142.365234375 699.735351562 m 1
 421.94921875 192.77734375 l 1
 421.94921875 699.641601562 l 1
 515.173828125 699.641601562 l 1
 515.173828125 0 l 1
 421.80859375 0 l 1
 142.225585938 506.864257812 l 1
 142.272460938 0 l 1
 49.046875 0 l 1
 49 699.641601562 l 1
 142.365234375 699.735351562 l 1
EndSplineSet
Validated: 1
EndChar

StartChar: O
Encoding: 79 79 14
Width: 572
VWidth: 0
Flags: MW
LayerCount: 2
Fore
SplineSet
165.44921875 701.962890625 m 1
 401.924804688 701.962890625 l 1
 510.672851562 593.169921875 l 1
 524.328125 579.514648438 l 1
 524.328125 122.44921875 l 1
 401.924804688 0 l 1
 165.44921875 0 l 1
 43 122.403320312 l 1
 43 579.514648438 l 1
 165.44921875 701.962890625 l 1
204.049804688 608.73828125 m 1
 136.225585938 540.9140625 l 1
 136.225585938 161.049804688 l 1
 204.049804688 93.224609375 l 1
 363.32421875 93.224609375 l 1
 431.103515625 161.049804688 l 1
 431.103515625 540.9140625 l 1
 363.32421875 608.73828125 l 1
 204.049804688 608.73828125 l 1
EndSplineSet
Validated: 1
EndChar

StartChar: P
Encoding: 80 80 15
Width: 561
VWidth: 0
Flags: MW
LayerCount: 2
Fore
SplineSet
49 700.142578125 m 1
 393.358398438 700.142578125 l 1
 515.806640625 577.693359375 l 1
 515.806640625 426.704101562 l 1
 407.2421875 316.454101562 l 1
 404.829101562 318.821289062 l 1
 404.829101562 303.208007812 l 1
 142.223632812 303.208007812 l 1
 142.223632812 0 l 1
 49 0 l 1
 49 700.142578125 l 1
142.223632812 606.916992188 m 1
 142.223632812 396.432617188 l 1
 355.166992188 396.432617188 l 1
 422.58203125 464.895507812 l 1
 422.58203125 539.092773438 l 1
 354.756835938 606.916992188 l 1
 142.223632812 606.916992188 l 1
EndSplineSet
Validated: 1
EndChar

StartChar: Q
Encoding: 81 81 16
Width: 572
VWidth: 0
Flags: MW
LayerCount: 2
Fore
SplineSet
165.44921875 701.962890625 m 1
 401.92578125 701.962890625 l 1
 510.671875 593.169921875 l 1
 524.283203125 579.514648438 l 1
 524.283203125 122.44921875 l 1
 401.92578125 0 l 1
 165.44921875 0 l 1
 43 122.403320312 l 1
 43 579.514648438 l 1
 165.44921875 701.962890625 l 1
204.049804688 608.73828125 m 1
 136.224609375 540.9140625 l 1
 136.224609375 161.049804688 l 1
 204.049804688 93.224609375 l 1
 363.278320312 93.224609375 l 1
 365.827148438 95.7744140625 l 1
 279.612304688 181.98828125 l 1
 345.571289062 247.901367188 l 1
 431.057617188 162.370117188 l 1
 431.057617188 540.9140625 l 1
 363.278320312 608.73828125 l 1
 204.049804688 608.73828125 l 1
EndSplineSet
Validated: 1
EndChar

StartChar: R
Encoding: 82 82 17
Width: 565
VWidth: 0
Flags: MW
LayerCount: 2
Fore
SplineSet
49 699.959960938 m 1
 393.358398438 699.959960938 l 1
 515.806640625 577.51171875 l 1
 515.806640625 426.522460938 l 1
 439.469726562 348.956054688 l 1
 515.806640625 271.435546875 l 1
 515.806640625 0 l 1
 422.58203125 0 l 1
 422.58203125 233.244140625 l 1
 353.892578125 303.026367188 l 1
 142.225585938 303.026367188 l 1
 142.225585938 0.0458984375 l 1
 49 0.0458984375 l 1
 49 699.959960938 l 1
142.225585938 606.735351562 m 1
 142.225585938 396.250976562 l 1
 355.212890625 396.250976562 l 1
 422.58203125 464.712890625 l 1
 422.58203125 538.911132812 l 1
 354.756835938 606.735351562 l 1
 142.225585938 606.735351562 l 1
EndSplineSet
Validated: 1
EndChar

StartChar: S
Encoding: 83 83 18
Width: 548
VWidth: 0
Flags: MW
LayerCount: 2
Fore
SplineSet
161.403320312 701.962890625 m 1
 394.875976562 701.962890625 l 1
 503.623046875 593.169921875 l 1
 437.6640625 527.2578125 l 1
 356.229492188 608.73828125 l 1
 200.049804688 608.73828125 l 1
 132.224609375 540.9140625 l 1
 132.224609375 466.715820312 l 1
 200.232421875 397.571289062 l 1
 383.586914062 397.571289062 l 1
 505.80859375 273.438476562 l 1
 505.80859375 122.403320312 l 1
 383.358398438 0 l 1
 147.975585938 0 l 1
 39.1826171875 108.747070312 l 1
 105.094726562 174.705078125 l 1
 186.576171875 93.224609375 l 1
 344.7578125 93.224609375 l 1
 412.58203125 161.049804688 l 1
 412.58203125 235.247070312 l 1
 344.530273438 304.346679688 l 1
 161.221679688 304.346679688 l 1
 39 428.524414062 l 1
 39 579.514648438 l 1
 161.403320312 701.962890625 l 1
EndSplineSet
Validated: 1
EndChar

StartChar: T
Encoding: 84 84 19
Width: 542
VWidth: 0
Flags: MW
LayerCount: 2
Fore
SplineSet
36 699.641601562 m 1
 222.405273438 699.641601562 l 1
 315.62890625 699.641601562 l 1
 502.125 699.641601562 l 1
 502.125 606.416992188 l 1
 315.62890625 606.416992188 l 1
 315.674804688 0 l 1
 222.450195312 0 l 1
 222.405273438 606.416992188 l 1
 36 606.416992188 l 1
 36 699.641601562 l 1
EndSplineSet
Validated: 1
EndChar

StartChar: U
Encoding: 85 85 20
Width: 565
VWidth: 0
Flags: MW
LayerCount: 2
Fore
SplineSet
48 701.5078125 m 1
 141.224609375 701.5078125 l 1
 141.224609375 161.049804688 l 1
 209.049804688 93.224609375 l 1
 353.665039062 93.224609375 l 1
 421.491210938 161.049804688 l 1
 421.491210938 701.5078125 l 1
 514.71484375 701.5078125 l 1
 514.71484375 122.44921875 l 1
 392.313476562 0 l 1
 170.448242188 0 l 1
 48 122.403320312 l 1
 48 701.5078125 l 1
EndSplineSet
Validated: 1
EndChar

StartChar: V
Encoding: 86 86 21
Width: 559
VWidth: 0
Flags: MW
LayerCount: 2
Fore
SplineSet
44 698.913085938 m 1
 137.227539062 698.913085938 l 1
 137.227539062 359.790039062 l 1
 277.063476562 96.3203125 l 1
 416.900390625 359.790039062 l 1
 416.900390625 698.913085938 l 1
 510.126953125 698.913085938 l 1
 510.126953125 336.57421875 l 1
 331.505859375 0 l 1
 222.622070312 0 l 1
 44 336.57421875 l 1
 44 698.913085938 l 1
EndSplineSet
Validated: 1
EndChar

StartChar: W
Encoding: 87 87 22
Width: 566
VWidth: 0
Flags: MW
LayerCount: 2
Fore
SplineSet
49 0 m 1
 49.0498046875 699.641601562 l 1
 142.275390625 699.641601562 l 1
 142.224609375 198.330078125 l 1
 227.666015625 359.2890625 l 1
 336.549804688 359.2890625 l 1
 421.991210938 198.330078125 l 1
 421.991210938 699.641601562 l 1
 515.21484375 699.641601562 l 1
 515.21484375 0 l 1
 421.60546875 0.09375 l 1
 282.108398438 262.958984375 l 1
 142.625976562 0.1279296875 l 1
 49 0 l 1
EndSplineSet
Validated: 1
EndChar

StartChar: X
Encoding: 88 88 23
Width: 564
VWidth: 0
Flags: MW
LayerCount: 2
Fore
SplineSet
48 698.50390625 m 1
 141.224609375 698.50390625 l 1
 141.224609375 529.579101562 l 1
 281.060546875 410.499023438 l 1
 420.8984375 529.579101562 l 1
 420.8984375 698.50390625 l 1
 514.123046875 698.50390625 l 1
 514.123046875 486.517578125 l 1
 352.892578125 349.274414062 l 1
 514.123046875 211.986328125 l 1
 514.123046875 0 l 1
 420.8984375 0 l 1
 420.8984375 168.924804688 l 1
 281.060546875 288.004882812 l 1
 141.224609375 168.924804688 l 1
 141.224609375 0 l 1
 48 0 l 1
 48 211.986328125 l 1
 209.23046875 349.274414062 l 1
 48 486.517578125 l 1
 48 698.50390625 l 1
EndSplineSet
Validated: 1
EndChar

StartChar: Y
Encoding: 89 89 24
Width: 555
VWidth: 0
Flags: MW
LayerCount: 2
Fore
SplineSet
43 699.186523438 m 1
 136.221679688 699.186523438 l 1
 136.221679688 527.985351562 l 1
 276.059570312 387.693359375 l 1
 415.896484375 527.985351562 l 1
 415.896484375 699.186523438 l 1
 509.12109375 699.186523438 l 1
 509.12109375 489.475585938 l 1
 322.671875 302.389648438 l 1
 322.721679688 0 l 1
 229.497070312 0 l 1
 229.447265625 302.34375 l 1
 43 489.475585938 l 1
 43 699.186523438 l 1
EndSplineSet
Validated: 1
EndChar

StartChar: Z
Encoding: 90 90 25
Width: 549
VWidth: 0
Flags: MW
LayerCount: 2
Fore
SplineSet
40.00390625 701.970703125 m 1
 506.125 701.962890625 l 1
 505.805664062 608.73828125 l 1
 153.1171875 93.224609375 l 1
 506.125 93.224609375 l 1
 506.125 0 l 1
 40 0 l 1
 40 92.9990234375 l 1
 40 93.232421875 l 1
 40.140625 93.232421875 l 1
 392.874023438 608.745117188 l 1
 40.00390625 608.745117188 l 1
 40.00390625 701.970703125 l 1
EndSplineSet
Validated: 1
EndChar

StartChar: bracketleft
Encoding: 91 91 26
Width: 292
VWidth: 0
Flags: MW
LayerCount: 2
Fore
SplineSet
51 699.782226562 m 1
 51.001953125 699.78125 l 1
 255.340820312 699.78125 l 1
 255.340820312 606.555664062 l 1
 144.2265625 606.555664062 l 1
 144.2265625 93.318359375 l 1
 255.38671875 93.224609375 l 1
 255.293945312 0 l 1
 51 0.1865234375 l 1
 51 699.782226562 l 1
EndSplineSet
Validated: 1
EndChar

StartChar: backslash
Encoding: 92 92 27
Width: 486
VWidth: 0
Flags: MW
LayerCount: 2
Fore
SplineSet
100.958984375 558.98828125 m 1
 454.1484375 205.798828125 l 1
 388.235351562 139.885742188 l 1
 35 493.075195312 l 1
 100.958984375 558.98828125 l 1
EndSplineSet
Validated: 1
EndChar

StartChar: bracketright
Encoding: 93 93 28
Width: 288
VWidth: 0
Flags: MW
LayerCount: 2
Fore
SplineSet
239.38671875 699.782226562 m 1
 239.38671875 0.1865234375 l 1
 35.0927734375 0 l 1
 35 93.224609375 l 1
 146.16015625 93.318359375 l 1
 146.16015625 606.555664062 l 1
 35.0458984375 606.555664062 l 1
 35.0458984375 699.78125 l 1
 239.384765625 699.78125 l 1
 239.38671875 699.782226562 l 1
EndSplineSet
Validated: 1
EndChar

StartChar: asciicircum
Encoding: 94 94 29
Width: 524
VWidth: 0
Flags: MW
LayerCount: 2
Fore
SplineSet
208.158203125 697.869140625 m 1
 317.041992188 697.869140625 l 1
 490.24609375 371.537109375 l 1
 407.900390625 327.837890625 l 1
 262.645507812 601.594726562 l 1
 117.346679688 327.837890625 l 1
 35 371.537109375 l 1
 208.158203125 697.869140625 l 1
EndSplineSet
Validated: 1
EndChar

StartChar: grave
Encoding: 96 96 30
Width: 307
VWidth: 0
Flags: MW
LayerCount: 2
Fore
SplineSet
83.61328125 696.23046875 m 1
 267.650390625 590.032226562 l 1
 221.083007812 509.280273438 l 1
 37 615.5234375 l 1
 83.61328125 696.23046875 l 1
EndSplineSet
Validated: 1
EndChar

StartChar: underscore
Encoding: 95 95 31
Width: 557
VWidth: 0
Flags: MW
LayerCount: 2
Fore
SplineSet
45 93.224609375 m 1
 511.125 93.224609375 l 1
 511.125 0 l 1
 45 0 l 1
 45 93.224609375 l 1
EndSplineSet
Validated: 1
EndChar

StartChar: a
Encoding: 97 97 32
Width: 555
VWidth: 0
Flags: MW
LayerCount: 2
Fore
SplineSet
221.620117188 698.028320312 m 1
 330.50390625 698.028320312 l 1
 509.125 361.453125 l 1
 509.125 -0.884765625 l 1
 415.899414062 -0.884765625 l 1
 415.899414062 302.323242188 l 1
 136.225585938 302.323242188 l 1
 136.225585938 -0.884765625 l 1
 43 -0.884765625 l 1
 43 361.453125 l 1
 221.620117188 698.028320312 l 1
276.0625 601.708007812 m 1
 166.6328125 395.547851562 l 1
 385.4921875 395.547851562 l 1
 276.0625 601.708007812 l 1
EndSplineSet
Validated: 1
EndChar

StartChar: at
Encoding: 64 64 33
Width: 571
VWidth: 0
Flags: MW
LayerCount: 2
Fore
SplineSet
169.44921875 702.008789062 m 1
 169.454101562 702.005859375 l 1
 405.930664062 702.005859375 l 1
 528.333984375 579.556640625 l 1
 528.098632812 141.836914062 l 1
 215.149414062 141.9765625 l 1
 215.149414062 454.744140625 l 1
 435.010742188 454.744140625 l 1
 435.057617188 540.958984375 l 1
 367.278320312 608.784179688 l 1
 208.049804688 608.784179688 l 1
 140.224609375 540.958984375 l 1
 140.224609375 161.049804688 l 1
 208.049804688 93.224609375 l 1
 386.625 93.224609375 l 1
 386.625 0 l 1
 169.44921875 0 l 1
 47 122.44921875 l 1
 47 579.560546875 l 1
 169.44921875 702.008789062 l 1
308.375976562 361.51953125 m 1
 308.375 361.521484375 l 1
 308.375 235.157226562 l 1
 434.919921875 235.110351562 l 1
 434.966796875 361.51953125 l 1
 308.375976562 361.51953125 l 1
EndSplineSet
Validated: 1
EndChar

StartChar: exclam
Encoding: 33 33 34
Width: 193
VWidth: 0
Flags: MW
LayerCount: 2
Fore
SplineSet
51 699.688476562 m 1
 144.224609375 699.688476562 l 1
 144.271484375 170.24609375 l 1
 51.046875 170.24609375 l 1
 51 699.688476562 l 1
144.224609375 92.953125 m 1
 144.271484375 0.046875 l 1
 51.046875 0 l 1
 51 92.90625 l 1
 144.224609375 92.953125 l 1
EndSplineSet
Validated: 1
EndChar

StartChar: quotedbl
Encoding: 34 34 35
Width: 366
VWidth: 0
Flags: MW
LayerCount: 2
Fore
SplineSet
47 699.688476562 m 1
 140.224609375 699.688476562 l 1
 140.271484375 487.15625 l 1
 47.046875 487.15625 l 1
 47 699.688476562 l 1
226.12109375 699.688476562 m 1
 319.346679688 699.688476562 l 1
 319.392578125 487.15625 l 1
 226.16796875 487.15625 l 1
 226.12109375 699.688476562 l 1
EndSplineSet
Validated: 1
EndChar

StartChar: numbersign
Encoding: 35 35 36
Width: 544
VWidth: 0
Flags: MW
LayerCount: 2
Fore
SplineSet
135.408203125 699.6875 m 1
 228.633789062 699.689453125 l 1
 228.633789062 486.01953125 l 1
 319.446289062 486.01953125 l 1
 319.399414062 699.689453125 l 1
 412.625 699.689453125 l 1
 412.671875 486.01953125 l 1
 507.125 486.01953125 l 1
 507.125 392.793945312 l 1
 412.671875 392.793945312 l 1
 412.671875 306.8984375 l 1
 507.125 306.8984375 l 1
 507.125 213.672851562 l 1
 412.671875 213.672851562 l 1
 412.717773438 0.0478515625 l 1
 319.493164062 0.0009765625 l 1
 319.446289062 213.671875 l 1
 228.6796875 213.671875 l 1
 228.6796875 0.046875 l 1
 135.455078125 0 l 1
 135.455078125 213.670898438 l 1
 41.0009765625 213.670898438 l 1
 41.0009765625 306.895507812 l 1
 135.455078125 306.895507812 l 1
 135.408203125 392.791992188 l 1
 41 392.791992188 l 1
 41 486.016601562 l 1
 135.408203125 486.016601562 l 1
 135.408203125 699.6875 l 1
228.6328125 392.791992188 m 1
 228.678710938 306.895507812 l 1
 319.4453125 306.895507812 l 1
 319.4453125 392.791992188 l 1
 228.6328125 392.791992188 l 1
EndSplineSet
Validated: 1
EndChar

StartChar: dollar
Encoding: 36 36 37
Width: 541
VWidth: 0
Flags: MW
LayerCount: 2
Fore
SplineSet
318.991210938 698.27734375 m 1
 319.038085938 638.646484375 l 1
 394.919921875 638.646484375 l 1
 503.666992188 529.853515625 l 1
 437.708007812 463.940429688 l 1
 356.2734375 545.421875 l 1
 200.094726562 545.421875 l 1
 132.223632812 477.596679688 l 1
 132.223632812 463.8046875 l 1
 200.276367188 394.659179688 l 1
 383.630859375 394.659179688 l 1
 505.8515625 270.481445312 l 1
 505.8515625 179.896484375 l 1
 383.403320312 57.447265625 l 1
 319.038085938 57.447265625 l 1
 319.084960938 0.046875 l 1
 225.860351562 0 l 1
 225.813476562 57.4462890625 l 1
 148.01953125 57.4462890625 l 1
 39.2275390625 166.239257812 l 1
 105.139648438 232.151367188 l 1
 186.62109375 150.670898438 l 1
 344.756835938 150.670898438 l 1
 412.626953125 218.49609375 l 1
 412.626953125 232.333984375 l 1
 344.575195312 301.432617188 l 1
 161.220703125 301.432617188 l 1
 39 425.611328125 l 1
 39 516.196289062 l 1
 161.448242188 638.64453125 l 1
 225.813476562 638.64453125 l 1
 225.766601562 698.23046875 l 1
 318.991210938 698.27734375 l 1
EndSplineSet
Validated: 1
EndChar

StartChar: percent
Encoding: 37 37 38
Width: 743
VWidth: 0
Flags: MW
LayerCount: 2
Fore
SplineSet
217.224609375 700.1875 m 1
 405.450195312 512.008789062 l 1
 217.224609375 323.783203125 l 1
 29 512.008789062 l 1
 184.268554688 667.231445312 l 1
 217.224609375 700.1875 l 1
534.362304688 580.7890625 m 1
 600.274414062 514.875976562 l 1
 200.701171875 115.301757812 l 1
 134.788085938 181.21484375 l 1
 534.362304688 580.7890625 l 1
217.224609375 568.362304688 m 1
 160.87109375 512.008789062 l 1
 217.224609375 455.609375 l 1
 273.578125 512.008789062 l 1
 217.224609375 568.362304688 l 1
525.53125 376.404296875 m 1
 713.755859375 188.1796875 l 1
 525.53125 0 l 1
 337.306640625 188.1796875 l 1
 492.575195312 343.448242188 l 1
 525.53125 376.404296875 l 1
525.53125 244.579101562 m 1
 469.131835938 188.1796875 l 1
 525.53125 131.826171875 l 1
 581.884765625 188.1796875 l 1
 525.53125 244.579101562 l 1
EndSplineSet
Validated: 1
EndChar

StartChar: ampersand
Encoding: 38 38 39
Width: 651
VWidth: 0
Flags: MW
LayerCount: 2
Fore
SplineSet
228.1796875 701.5078125 m 1
 416.404296875 513.328125 l 1
 294.411132812 391.334960938 l 1
 476.125976562 209.57421875 l 1
 553.419921875 286.866210938 l 1
 619.33203125 220.954101562 l 1
 542.0390625 143.661132812 l 1
 618.28515625 67.4609375 l 1
 552.327148438 1.5478515625 l 1
 476.125976562 77.748046875 l 1
 398.37890625 0 l 1
 162.995117188 0 l 1
 40.5458984375 122.448242188 l 1
 40.5458984375 273.483398438 l 1
 159.53515625 393.747070312 l 1
 40 513.328125 l 1
 195.22265625 668.551757812 l 1
 228.1796875 701.5078125 l 1
228.1796875 569.681640625 m 1
 228.1796875 569.682617188 l 1
 171.826171875 513.329101562 l 1
 188.896484375 496.258789062 l 1
 189.168945312 496.53125 l 1
 228.498046875 457.248046875 l 1
 284.578125 513.328125 l 1
 228.1796875 569.681640625 l 1
225.448242188 327.834960938 m 1
 225.447265625 327.833984375 l 1
 133.770507812 235.155273438 l 1
 133.770507812 161.048828125 l 1
 201.595703125 93.224609375 l 1
 359.77734375 93.224609375 l 1
 410.212890625 143.66015625 l 1
 228.452148438 325.375976562 l 1
 228.1796875 325.103515625 l 1
 225.448242188 327.834960938 l 1
EndSplineSet
Validated: 1
EndChar

StartChar: quotesingle
Encoding: 39 39 40
Width: 187
VWidth: 0
Flags: MW
LayerCount: 2
Fore
SplineSet
47 701.5078125 m 1
 140.224609375 701.5078125 l 1
 140.271484375 488.975585938 l 1
 47.046875 488.975585938 l 1
 47 701.5078125 l 1
EndSplineSet
Validated: 1
EndChar

StartChar: parenleft
Encoding: 40 40 41
Width: 257
VWidth: 0
Flags: MW
LayerCount: 2
Fore
SplineSet
159.388671875 697.95703125 m 1
 225.34765625 632.044921875 l 1
 140.225585938 546.921875 l 1
 140.225585938 151.03515625 l 1
 225.34765625 65.9130859375 l 1
 159.388671875 0 l 1
 47 112.434570312 l 1
 47 585.568359375 l 1
 159.388671875 697.95703125 l 1
EndSplineSet
Validated: 1
EndChar

StartChar: parenright
Encoding: 41 41 42
Width: 253
VWidth: 0
Flags: MW
LayerCount: 2
Fore
SplineSet
96.958984375 697.95703125 m 1
 209.34765625 585.568359375 l 1
 209.34765625 112.434570312 l 1
 96.958984375 0 l 1
 31 65.9130859375 l 1
 116.122070312 151.03515625 l 1
 116.122070312 546.921875 l 1
 31 632.044921875 l 1
 96.958984375 697.95703125 l 1
EndSplineSet
Validated: 1
EndChar

StartChar: asterisk
Encoding: 42 42 43
Width: 424
VWidth: 0
Flags: MW
LayerCount: 2
Fore
SplineSet
166.23046875 525.163085938 m 1
 166.23046875 525.1640625 l 1
 259.455078125 525.1640625 l 1
 259.455078125 429.708984375 l 1
 342.120117188 477.458984375 l 1
 388.77734375 396.751953125 l 1
 306.11328125 349.001953125 l 1
 388.77734375 301.296875 l 1
 342.165039062 220.544921875 l 1
 259.500976562 268.25 l 1
 259.500976562 172.83984375 l 1
 166.276367188 172.79296875 l 1
 166.276367188 268.248046875 l 1
 83.6123046875 220.498046875 l 1
 37 301.25 l 1
 119.618164062 348.955078125 l 1
 37 396.66015625 l 1
 83.6123046875 477.412109375 l 1
 166.23046875 429.708007812 l 1
 166.23046875 525.163085938 l 1
EndSplineSet
Validated: 1
EndChar

StartChar: plus
Encoding: 43 43 44
Width: 428
VWidth: 0
Flags: MW
LayerCount: 2
Fore
SplineSet
168.548828125 525.1640625 m 1
 261.7734375 525.1640625 l 1
 261.791015625 395.595703125 l 1
 391.369140625 395.61328125 l 1
 391.369140625 302.38671875 l 1
 261.802734375 302.37109375 l 1
 261.8203125 172.83984375 l 1
 168.595703125 172.79296875 l 1
 168.578125 302.357421875 l 1
 39 302.341796875 l 1
 39 395.56640625 l 1
 168.56640625 395.583984375 l 1
 168.548828125 525.162109375 l 1
 168.548828125 525.1640625 l 1
EndSplineSet
Validated: 1
EndChar

StartChar: comma
Encoding: 44 44 45
Width: 256
VWidth: 0
Flags: MW
LayerCount: 2
Fore
SplineSet
121.077148438 212.259765625 m 1
 214.301757812 212.259765625 l 1
 214.301757812 112.434570312 l 1
 101.913085938 0 l 1
 36 65.9130859375 l 1
 121.077148438 151.03515625 l 1
 121.077148438 212.259765625 l 1
EndSplineSet
Validated: 1
EndChar

StartChar: hyphen
Encoding: 45 45 46
Width: 442
VWidth: 0
Flags: MW
LayerCount: 2
Fore
SplineSet
398.370117188 395.614257812 m 1
 398.37109375 395.614257812 l 1
 398.37109375 302.389648438 l 1
 46.046875 302.342773438 l 1
 46 395.567382812 l 1
 398.370117188 395.614257812 l 1
EndSplineSet
Validated: 1
EndChar

StartChar: period
Encoding: 46 46 47
Width: 184
VWidth: 0
Flags: MW
LayerCount: 2
Fore
SplineSet
138.224609375 93.7724609375 m 1
 138.271484375 0.046875 l 1
 45.046875 0 l 1
 45 93.7255859375 l 1
 138.224609375 93.7724609375 l 1
EndSplineSet
Validated: 1
EndChar

StartChar: slash
Encoding: 47 47 48
Width: 488
VWidth: 0
Flags: MW
LayerCount: 2
Fore
SplineSet
388.235351562 558.529296875 m 1
 454.1484375 492.6171875 l 1
 100.958984375 139.427734375 l 1
 35 205.340820312 l 1
 388.235351562 558.529296875 l 1
EndSplineSet
Validated: 1
EndChar

StartChar: zero
Encoding: 48 48 49
Width: 581
VWidth: 0
Flags: MW
LayerCount: 2
Fore
SplineSet
172.44921875 701.962890625 m 1
 408.924804688 701.962890625 l 1
 517.672851562 593.169921875 l 1
 531.328125 579.514648438 l 1
 531.328125 122.44921875 l 1
 408.924804688 0 l 1
 172.44921875 0 l 1
 50 122.403320312 l 1
 50 579.514648438 l 1
 172.44921875 701.962890625 l 1
211.049804688 608.73828125 m 1
 143.225585938 540.9140625 l 1
 143.225585938 161.049804688 l 1
 211.049804688 93.224609375 l 1
 370.32421875 93.224609375 l 1
 438.103515625 161.049804688 l 1
 438.103515625 540.9140625 l 1
 370.32421875 608.73828125 l 1
 211.049804688 608.73828125 l 1
EndSplineSet
EndChar

StartChar: one
Encoding: 49 49 50
Width: 285
VWidth: 0
Flags: MW
LayerCount: 2
Fore
SplineSet
32 699.778320312 m 1
 236.33984375 699.778320312 l 1
 236.38671875 0 l 1
 143.161132812 0 l 1
 143.114257812 606.553710938 l 1
 32 606.553710938 l 1
 32 699.778320312 l 1
EndSplineSet
Validated: 1
EndChar

StartChar: two
Encoding: 50 50 51
Width: 546
VWidth: 0
Flags: MW
LayerCount: 2
Fore
SplineSet
143.747070312 700.4609375 m 1
 380.217773438 700.4609375 l 1
 502.666015625 577.966796875 l 1
 502.393554688 391.380859375 l 1
 175.923828125 93.224609375 l 1
 502.666015625 93.224609375 l 1
 502.666015625 0 l 1
 35.4951171875 0 l 1
 35.041015625 90.7666015625 l 1
 409.21484375 432.576171875 l 1
 409.401367188 539.411132812 l 1
 341.576171875 607.236328125 l 1
 182.34765625 607.236328125 l 1
 100.912109375 525.755859375 l 1
 35 591.66796875 l 1
 143.747070312 700.4609375 l 1
EndSplineSet
Validated: 1
EndChar

StartChar: three
Encoding: 51 51 52
Width: 497
VWidth: 0
Flags: MW
LayerCount: 2
Fore
SplineSet
143.79296875 702.0078125 m 1
 333.974609375 702.0078125 l 1
 456.423828125 579.55859375 l 1
 456.423828125 428.5703125 l 1
 380.0859375 351.00390625 l 1
 456.423828125 273.4375 l 1
 456.423828125 122.447265625 l 1
 333.974609375 0 l 1
 143.79296875 0 l 1
 35 108.79296875 l 1
 100.958984375 174.705078125 l 1
 182.439453125 93.224609375 l 1
 295.375 93.224609375 l 1
 363.19921875 161.048828125 l 1
 363.19921875 235.24609375 l 1
 294.46875 305.07421875 l 1
 238.701171875 305.07421875 l 1
 238.701171875 398.298828125 l 1
 295.83203125 398.298828125 l 1
 363.19921875 466.71484375 l 1
 363.19921875 540.958984375 l 1
 295.375 608.783203125 l 1
 182.439453125 608.783203125 l 1
 100.958984375 527.302734375 l 1
 35 593.21484375 l 1
 143.79296875 702.0078125 l 1
EndSplineSet
EndChar

StartChar: four
Encoding: 52 52 53
Width: 558
VWidth: 0
Flags: MW
LayerCount: 2
Fore
SplineSet
42 699.641601562 m 1
 135.224609375 699.641601562 l 1
 135.224609375 464.940429688 l 1
 203.27734375 395.795898438 l 1
 415.58203125 395.795898438 l 1
 415.58203125 699.186523438 l 1
 508.806640625 699.186523438 l 1
 508.806640625 0 l 1
 415.58203125 0 l 1
 415.58203125 302.571289062 l 1
 164.220703125 302.571289062 l 1
 42 426.75 l 1
 42 699.641601562 l 1
EndSplineSet
Validated: 1
EndChar

StartChar: five
Encoding: 53 53 54
Width: 537
VWidth: 0
Flags: MW
LayerCount: 2
Fore
SplineSet
470.626953125 702.008789062 m 1
 470.762695312 608.784179688 l 1
 145.340820312 608.374023438 l 1
 145.841796875 397.6171875 l 1
 379.358398438 397.6171875 l 1
 501.580078125 273.438476562 l 1
 501.580078125 122.44921875 l 1
 379.130859375 0 l 1
 143.748046875 0 l 1
 35 108.79296875 l 1
 100.913085938 174.706054688 l 1
 182.39453125 93.224609375 l 1
 340.530273438 93.224609375 l 1
 408.35546875 161.049804688 l 1
 408.35546875 235.247070312 l 1
 340.302734375 304.391601562 l 1
 52.8447265625 304.391601562 l 1
 51.888671875 701.5078125 l 1
 470.626953125 702.008789062 l 1
EndSplineSet
Validated: 1
EndChar

StartChar: six
Encoding: 54 54 55
Width: 550
VWidth: 0
Flags: MW
LayerCount: 2
Fore
SplineSet
170.81640625 702.008789062 m 1
 170.818359375 702.008789062 l 1
 453.178710938 702.008789062 l 1
 453.178710938 608.784179688 l 1
 209.419921875 608.784179688 l 1
 141.594726562 540.9140625 l 1
 141.361328125 397.6171875 l 1
 392.951171875 397.6171875 l 1
 515.171875 273.438476562 l 1
 515.171875 122.44921875 l 1
 392.768554688 0 l 1
 157.384765625 0 l 1
 48 109.384765625 l 1
 48 304.391601562 l 1
 48 364.796875 l 1
 48.0947265625 364.796875 l 1
 48.4130859375 579.60546875 l 1
 170.81640625 702.008789062 l 1
141.228515625 304.391601562 m 1
 141.228515625 147.985351562 l 1
 195.989257812 93.224609375 l 1
 354.125 93.224609375 l 1
 421.950195312 161.049804688 l 1
 421.950195312 235.247070312 l 1
 353.943359375 304.391601562 l 1
 141.228515625 304.391601562 l 1
EndSplineSet
Validated: 1
EndChar

StartChar: seven
Encoding: 55 55 56
Width: 537
VWidth: 0
Flags: MW
LayerCount: 2
Fore
SplineSet
36.91015625 700.051757812 m 1
 36.9111328125 700.051757812 l 1
 503.03515625 700.051757812 l 1
 503.03515625 606.826171875 l 1
 502.715820312 606.826171875 l 1
 129.224609375 60.7236328125 l 1
 129.224609375 0 l 1
 36 0 l 1
 36 89.5380859375 l 1
 389.826171875 606.826171875 l 1
 36.91015625 606.826171875 l 1
 36.91015625 700.051757812 l 1
EndSplineSet
Validated: 1
EndChar

StartChar: eight
Encoding: 56 56 57
Width: 550
VWidth: 0
Flags: MW
LayerCount: 2
Fore
SplineSet
165.44921875 702.008789062 m 1
 388.041015625 702.008789062 l 1
 510.490234375 579.560546875 l 1
 510.490234375 428.5703125 l 1
 434.153320312 351.004882812 l 1
 510.490234375 273.438476562 l 1
 510.490234375 122.44921875 l 1
 388.041015625 0 l 1
 165.44921875 0 l 1
 43 122.44921875 l 1
 43 273.438476562 l 1
 119.336914062 351.004882812 l 1
 43 428.5703125 l 1
 43 579.560546875 l 1
 151.79296875 688.352539062 l 1
 165.44921875 702.008789062 l 1
204.049804688 608.784179688 m 1
 136.224609375 540.958984375 l 1
 136.224609375 466.715820312 l 1
 203.594726562 398.299804688 l 1
 349.895507812 398.299804688 l 1
 417.265625 466.715820312 l 1
 417.265625 540.958984375 l 1
 349.440429688 608.784179688 l 1
 204.049804688 608.784179688 l 1
204.9609375 305.075195312 m 1
 136.225585938 235.247070312 l 1
 136.225585938 161.049804688 l 1
 204.05078125 93.224609375 l 1
 349.44140625 93.224609375 l 1
 417.266601562 161.049804688 l 1
 417.266601562 235.247070312 l 1
 348.53125 305.075195312 l 1
 204.9609375 305.075195312 l 1
EndSplineSet
Validated: 1
EndChar

StartChar: nine
Encoding: 57 57 58
Width: 551
VWidth: 0
Flags: MW
LayerCount: 2
Fore
SplineSet
163.448242188 702.008789062 m 1
 398.827148438 702.008789062 l 1
 508.166015625 592.624023438 l 1
 507.80078125 122.403320312 l 1
 385.352539062 0 l 1
 149.922851562 0 l 1
 41.130859375 108.79296875 l 1
 107.088867188 174.706054688 l 1
 188.524414062 93.224609375 l 1
 346.751953125 93.224609375 l 1
 414.622070312 161.094726562 l 1
 414.854492188 304.391601562 l 1
 163.220703125 304.391601562 l 1
 41 428.5703125 l 1
 41 579.560546875 l 1
 163.448242188 702.008789062 l 1
202.048828125 608.784179688 m 1
 134.224609375 540.958984375 l 1
 134.224609375 466.715820312 l 1
 202.276367188 397.6171875 l 1
 414.946289062 397.6171875 l 1
 414.946289062 554.0234375 l 1
 360.185546875 608.784179688 l 1
 202.048828125 608.784179688 l 1
EndSplineSet
Validated: 1
EndChar

StartChar: colon
Encoding: 58 58 59
Width: 186
VWidth: 0
Flags: MW
LayerCount: 2
Fore
SplineSet
142.224609375 494.984375 m 1
 142.271484375 401.258789062 l 1
 49.046875 401.211914062 l 1
 49 494.9375 l 1
 142.224609375 494.984375 l 1
142.224609375 254.18359375 m 1
 142.271484375 160.458007812 l 1
 49.046875 160.411132812 l 1
 49 254.13671875 l 1
 142.224609375 254.18359375 l 1
EndSplineSet
Validated: 1
EndChar

StartChar: semicolon
Encoding: 59 59 60
Width: 253
VWidth: 0
Flags: MW
LayerCount: 2
Fore
SplineSet
208.481445312 494.984375 m 1
 208.528320312 401.258789062 l 1
 115.303710938 401.211914062 l 1
 115.256835938 494.9375 l 1
 208.481445312 494.984375 l 1
117.077148438 214.307617188 m 1
 210.302734375 214.307617188 l 1
 210.302734375 114.4375 l 1
 97.9130859375 2.0029296875 l 1
 32 67.916015625 l 1
 117.077148438 153.038085938 l 1
 117.077148438 214.307617188 l 1
EndSplineSet
Validated: 1
EndChar

StartChar: less
Encoding: 60 60 61
Width: 447
VWidth: 0
Flags: MW
LayerCount: 2
Fore
SplineSet
367.33203125 578.604492188 m 1
 411.03125 496.258789062 l 1
 137.3203125 351.004882812 l 1
 411.03125 205.705078125 l 1
 367.33203125 123.359375 l 1
 41 296.5625 l 1
 41 405.446289062 l 1
 367.33203125 578.604492188 l 1
EndSplineSet
Validated: 1
EndChar

StartChar: equal
Encoding: 61 61 62
Width: 447
VWidth: 0
Flags: MW
LayerCount: 2
Fore
SplineSet
401.369140625 490.841796875 m 1
 401.369140625 397.6171875 l 1
 49 397.5703125 l 1
 49 490.794921875 l 1
 401.369140625 490.841796875 l 1
401.369140625 304.391601562 m 1
 401.369140625 211.166992188 l 1
 49 211.120117188 l 1
 49 304.344726562 l 1
 401.369140625 304.391601562 l 1
EndSplineSet
Validated: 1
EndChar

StartChar: greater
Encoding: 62 62 63
Width: 446
VWidth: 0
Flags: MW
LayerCount: 2
Fore
SplineSet
81.69921875 578.604492188 m 1
 408.03125 405.446289062 l 1
 408.03125 296.5625 l 1
 81.69921875 123.359375 l 1
 38 205.705078125 l 1
 311.7109375 351.004882812 l 1
 38 496.258789062 l 1
 81.69921875 578.604492188 l 1
EndSplineSet
Validated: 1
EndChar

StartChar: question
Encoding: 63 63 64
Width: 537
VWidth: 0
Flags: MW
LayerCount: 2
Fore
SplineSet
137.748046875 702.102539062 m 1
 374.220703125 702.102539062 l 1
 496.669921875 579.608398438 l 1
 496.350585938 387.923828125 l 1
 309.446289062 269.663085938 l 1
 309.493164062 170.248046875 l 1
 216.268554688 170.248046875 l 1
 216.173828125 321.009765625 l 1
 403.215820312 439.31640625 l 1
 403.40234375 541.052734375 l 1
 335.623046875 608.877929688 l 1
 176.348632812 608.877929688 l 1
 94.9130859375 527.397460938 l 1
 29 593.309570312 l 1
 137.748046875 702.102539062 l 1
309.40234375 93 m 1
 309.497070312 0.046875 l 1
 216.271484375 0 l 1
 216.178710938 92.90625 l 1
 309.40234375 93 l 1
EndSplineSet
Validated: 1
EndChar

StartChar: b
Encoding: 98 98 65
Width: 562
VWidth: 0
Flags: MW
LayerCount: 2
Fore
SplineSet
49 701.6953125 m 1
 393.358398438 701.6953125 l 1
 515.806640625 579.247070312 l 1
 515.806640625 428.2578125 l 1
 439.469726562 350.69140625 l 1
 515.806640625 273.170898438 l 1
 515.806640625 122.135742188 l 1
 393.358398438 -0.267578125 l 1
 95.6123046875 -0.267578125 l 1
 49 -0.267578125 l 1
 49 701.6953125 l 1
142.224609375 608.470703125 m 1
 142.224609375 397.986328125 l 1
 355.212890625 397.986328125 l 1
 422.58203125 466.44921875 l 1
 422.58203125 540.646484375 l 1
 354.756835938 608.470703125 l 1
 142.224609375 608.470703125 l 1
142.224609375 304.76171875 m 1
 142.224609375 92.9580078125 l 1
 354.756835938 92.9580078125 l 1
 422.58203125 160.782226562 l 1
 422.58203125 234.979492188 l 1
 353.892578125 304.76171875 l 1
 142.224609375 304.76171875 l 1
EndSplineSet
Validated: 1
EndChar

StartChar: c
Encoding: 99 99 66
Width: 545
VWidth: 0
Flags: MW
LayerCount: 2
Fore
SplineSet
165.448242188 701.514648438 m 1
 401.924804688 701.514648438 l 1
 510.671875 592.721679688 l 1
 444.713867188 526.809570312 l 1
 363.32421875 608.290039062 l 1
 204.049804688 608.290039062 l 1
 136.224609375 540.46484375 l 1
 136.224609375 160.6015625 l 1
 204.049804688 92.7763671875 l 1
 363.32421875 92.7763671875 l 1
 444.713867188 174.211914062 l 1
 510.671875 108.344726562 l 1
 401.924804688 -0.4482421875 l 1
 165.448242188 -0.4482421875 l 1
 43 121.955078125 l 1
 43 579.06640625 l 1
 165.448242188 701.514648438 l 1
EndSplineSet
Validated: 1
EndChar

StartChar: d
Encoding: 100 100 67
Width: 563
VWidth: 0
Flags: MW
LayerCount: 2
Fore
SplineSet
49 701.962890625 m 1
 392.67578125 701.962890625 l 1
 515.078125 579.514648438 l 1
 515.078125 122.403320312 l 1
 392.67578125 0 l 1
 49 0 l 1
 49 655.350585938 l 1
 49 701.962890625 l 1
142.224609375 608.73828125 m 1
 142.224609375 93.224609375 l 1
 354.028320312 93.224609375 l 1
 421.853515625 161.049804688 l 1
 421.853515625 540.9140625 l 1
 354.028320312 608.73828125 l 1
 142.224609375 608.73828125 l 1
EndSplineSet
Validated: 1
EndChar

StartChar: e
Encoding: 101 101 68
Width: 559
VWidth: 0
Flags: MW
LayerCount: 2
Fore
SplineSet
49 701.962890625 m 1
 515.125 701.962890625 l 1
 515.125 608.73828125 l 1
 142.225585938 608.73828125 l 1
 142.225585938 398.25390625 l 1
 282.0625 398.25390625 l 1
 282.0625 305.029296875 l 1
 142.225585938 305.029296875 l 1
 142.225585938 93.224609375 l 1
 515.125 93.224609375 l 1
 515.125 0 l 1
 49 0 l 1
 49 305.029296875 l 1
 49 398.25390625 l 1
 49 701.962890625 l 1
EndSplineSet
Validated: 1
EndChar

StartChar: f
Encoding: 102 102 69
Width: 557
VWidth: 0
Flags: MW
LayerCount: 2
Fore
SplineSet
49 700.415039062 m 1
 515.125 700.415039062 l 1
 515.125 607.190429688 l 1
 142.225585938 607.190429688 l 1
 142.225585938 396.706054688 l 1
 282.0625 396.706054688 l 1
 282.0625 303.481445312 l 1
 142.225585938 303.481445312 l 1
 142.225585938 0 l 1
 49 0 l 1
 49 303.481445312 l 1
 49 396.706054688 l 1
 49 700.415039062 l 1
EndSplineSet
Validated: 1
EndChar

StartChar: g
Encoding: 103 103 70
Width: 569
VWidth: 0
Flags: MW
LayerCount: 2
Fore
SplineSet
165.448242188 701.962890625 m 1
 401.924804688 701.962890625 l 1
 510.671875 593.169921875 l 1
 444.713867188 527.2578125 l 1
 363.32421875 608.73828125 l 1
 204.049804688 608.73828125 l 1
 136.224609375 540.9140625 l 1
 136.224609375 161.049804688 l 1
 204.049804688 93.224609375 l 1
 363.32421875 93.224609375 l 1
 431.102539062 161.049804688 l 1
 431.102539062 305.029296875 l 1
 282.071289062 305.029296875 l 1
 282.071289062 398.25390625 l 1
 524.328125 398.25390625 l 1
 524.328125 122.44921875 l 1
 401.924804688 0 l 1
 165.448242188 0 l 1
 43 122.403320312 l 1
 43 579.514648438 l 1
 165.448242188 701.962890625 l 1
EndSplineSet
Validated: 1
EndChar

StartChar: h
Encoding: 104 104 71
Width: 566
VWidth: 0
Flags: MW
LayerCount: 2
Fore
SplineSet
49 699.641601562 m 1
 142.2265625 699.641601562 l 1
 142.2265625 388.649414062 l 1
 421.947265625 388.649414062 l 1
 421.947265625 699.641601562 l 1
 515.171875 699.641601562 l 1
 515.171875 0 l 1
 421.947265625 0 l 1
 421.947265625 295.424804688 l 1
 142.272460938 295.424804688 l 1
 142.272460938 0 l 1
 49.0478515625 0 l 1
 49 699.641601562 l 1
EndSplineSet
Validated: 1
EndChar

StartChar: i
Encoding: 105 105 72
Width: 192
VWidth: 0
Flags: MW
LayerCount: 2
Fore
SplineSet
49 699.641601562 m 1
 142.224609375 699.641601562 l 1
 142.271484375 0 l 1
 49.046875 0 l 1
 49 699.641601562 l 1
EndSplineSet
Validated: 1
EndChar

StartChar: j
Encoding: 106 106 73
Width: 544
VWidth: 0
Flags: MW
LayerCount: 2
Fore
SplineSet
400.447265625 701.052734375 m 1
 493.671875 701.052734375 l 1
 493.671875 122.403320312 l 1
 371.22265625 0 l 1
 134.747070312 0 l 1
 26 108.79296875 l 1
 91.9580078125 174.66015625 l 1
 173.393554688 93.224609375 l 1
 332.622070312 93.224609375 l 1
 400.447265625 161.049804688 l 1
 400.447265625 701.052734375 l 1
EndSplineSet
Validated: 1
EndChar

StartChar: k
Encoding: 107 107 74
Width: 565
VWidth: 0
Flags: MW
LayerCount: 2
Fore
SplineSet
49 700.096679688 m 1
 142.225585938 700.096679688 l 1
 142.225585938 396.706054688 l 1
 291.89453125 396.706054688 l 1
 422.946289062 528.03125 l 1
 422.946289062 699.186523438 l 1
 516.171875 699.186523438 l 1
 516.171875 489.430664062 l 1
 376.880859375 349.866210938 l 1
 516.171875 209.801757812 l 1
 516.171875 0.0908203125 l 1
 422.946289062 0.0908203125 l 1
 422.946289062 171.336914062 l 1
 291.530273438 303.481445312 l 1
 142.225585938 303.481445312 l 1
 142.225585938 0 l 1
 49 0 l 1
 49 700.096679688 l 1
EndSplineSet
Validated: 1
EndChar

StartChar: l
Encoding: 108 108 75
Width: 554
VWidth: 0
Flags: MW
LayerCount: 2
Fore
SplineSet
49 701.64453125 m 1
 142.225585938 701.64453125 l 1
 142.225585938 93.224609375 l 1
 515.125 93.224609375 l 1
 515.125 0 l 1
 49 0 l 1
 49 701.64453125 l 1
EndSplineSet
Validated: 1
EndChar

StartChar: m
Encoding: 109 109 76
Width: 566
VWidth: 0
Flags: MW
LayerCount: 2
Fore
SplineSet
49 699.641601562 m 1
 142.626953125 699.514648438 l 1
 282.107421875 436.682617188 l 1
 421.60546875 699.547851562 l 1
 515.21484375 699.641601562 l 1
 515.21484375 0 l 1
 421.990234375 0 l 1
 421.990234375 501.311523438 l 1
 336.548828125 340.353515625 l 1
 227.665039062 340.353515625 l 1
 142.224609375 501.311523438 l 1
 142.271484375 0 l 1
 49.046875 0 l 1
 49 699.641601562 l 1
EndSplineSet
Validated: 1
EndChar

StartChar: n
Encoding: 110 110 77
Width: 566
VWidth: 0
Flags: MW
LayerCount: 2
Fore
SplineSet
142.365234375 699.735351562 m 1
 421.94921875 192.77734375 l 1
 421.94921875 699.641601562 l 1
 515.173828125 699.641601562 l 1
 515.173828125 0 l 1
 421.80859375 0 l 1
 142.225585938 506.864257812 l 1
 142.272460938 0 l 1
 49.046875 0 l 1
 49 699.641601562 l 1
 142.365234375 699.735351562 l 1
EndSplineSet
Validated: 1
EndChar

StartChar: o
Encoding: 111 111 78
Width: 572
VWidth: 0
Flags: MW
LayerCount: 2
Fore
SplineSet
165.44921875 701.962890625 m 1
 401.924804688 701.962890625 l 1
 510.672851562 593.169921875 l 1
 524.328125 579.514648438 l 1
 524.328125 122.44921875 l 1
 401.924804688 0 l 1
 165.44921875 0 l 1
 43 122.403320312 l 1
 43 579.514648438 l 1
 165.44921875 701.962890625 l 1
204.049804688 608.73828125 m 1
 136.225585938 540.9140625 l 1
 136.225585938 161.049804688 l 1
 204.049804688 93.224609375 l 1
 363.32421875 93.224609375 l 1
 431.103515625 161.049804688 l 1
 431.103515625 540.9140625 l 1
 363.32421875 608.73828125 l 1
 204.049804688 608.73828125 l 1
EndSplineSet
Validated: 1
EndChar

StartChar: p
Encoding: 112 112 79
Width: 561
VWidth: 0
Flags: MW
LayerCount: 2
Fore
SplineSet
49 700.142578125 m 1
 393.358398438 700.142578125 l 1
 515.806640625 577.693359375 l 1
 515.806640625 426.704101562 l 1
 407.2421875 316.454101562 l 1
 404.829101562 318.821289062 l 1
 404.829101562 303.208007812 l 1
 142.223632812 303.208007812 l 1
 142.223632812 0 l 1
 49 0 l 1
 49 700.142578125 l 1
142.223632812 606.916992188 m 1
 142.223632812 396.432617188 l 1
 355.166992188 396.432617188 l 1
 422.58203125 464.895507812 l 1
 422.58203125 539.092773438 l 1
 354.756835938 606.916992188 l 1
 142.223632812 606.916992188 l 1
EndSplineSet
Validated: 1
EndChar

StartChar: q
Encoding: 113 113 80
Width: 572
VWidth: 0
Flags: MW
LayerCount: 2
Fore
SplineSet
165.44921875 701.962890625 m 1
 401.92578125 701.962890625 l 1
 510.671875 593.169921875 l 1
 524.283203125 579.514648438 l 1
 524.283203125 122.44921875 l 1
 401.92578125 0 l 1
 165.44921875 0 l 1
 43 122.403320312 l 1
 43 579.514648438 l 1
 165.44921875 701.962890625 l 1
204.049804688 608.73828125 m 1
 136.224609375 540.9140625 l 1
 136.224609375 161.049804688 l 1
 204.049804688 93.224609375 l 1
 363.278320312 93.224609375 l 1
 365.827148438 95.7744140625 l 1
 279.612304688 181.98828125 l 1
 345.571289062 247.901367188 l 1
 431.057617188 162.370117188 l 1
 431.057617188 540.9140625 l 1
 363.278320312 608.73828125 l 1
 204.049804688 608.73828125 l 1
EndSplineSet
Validated: 1
EndChar

StartChar: r
Encoding: 114 114 81
Width: 565
VWidth: 0
Flags: MW
LayerCount: 2
Fore
SplineSet
49 699.959960938 m 1
 393.358398438 699.959960938 l 1
 515.806640625 577.51171875 l 1
 515.806640625 426.522460938 l 1
 439.469726562 348.956054688 l 1
 515.806640625 271.435546875 l 1
 515.806640625 0 l 1
 422.58203125 0 l 1
 422.58203125 233.244140625 l 1
 353.892578125 303.026367188 l 1
 142.225585938 303.026367188 l 1
 142.225585938 0.0458984375 l 1
 49 0.0458984375 l 1
 49 699.959960938 l 1
142.225585938 606.735351562 m 1
 142.225585938 396.250976562 l 1
 355.212890625 396.250976562 l 1
 422.58203125 464.712890625 l 1
 422.58203125 538.911132812 l 1
 354.756835938 606.735351562 l 1
 142.225585938 606.735351562 l 1
EndSplineSet
Validated: 1
EndChar

StartChar: s
Encoding: 115 115 82
Width: 548
VWidth: 0
Flags: MW
LayerCount: 2
Fore
SplineSet
161.403320312 701.962890625 m 1
 394.875976562 701.962890625 l 1
 503.623046875 593.169921875 l 1
 437.6640625 527.2578125 l 1
 356.229492188 608.73828125 l 1
 200.049804688 608.73828125 l 1
 132.224609375 540.9140625 l 1
 132.224609375 466.715820312 l 1
 200.232421875 397.571289062 l 1
 383.586914062 397.571289062 l 1
 505.80859375 273.438476562 l 1
 505.80859375 122.403320312 l 1
 383.358398438 0 l 1
 147.975585938 0 l 1
 39.1826171875 108.747070312 l 1
 105.094726562 174.705078125 l 1
 186.576171875 93.224609375 l 1
 344.7578125 93.224609375 l 1
 412.58203125 161.049804688 l 1
 412.58203125 235.247070312 l 1
 344.530273438 304.346679688 l 1
 161.221679688 304.346679688 l 1
 39 428.524414062 l 1
 39 579.514648438 l 1
 161.403320312 701.962890625 l 1
EndSplineSet
Validated: 1
EndChar

StartChar: t
Encoding: 116 116 83
Width: 542
VWidth: 0
Flags: MW
LayerCount: 2
Fore
SplineSet
36 699.641601562 m 1
 222.405273438 699.641601562 l 1
 315.62890625 699.641601562 l 1
 502.125 699.641601562 l 1
 502.125 606.416992188 l 1
 315.62890625 606.416992188 l 1
 315.674804688 0 l 1
 222.450195312 0 l 1
 222.405273438 606.416992188 l 1
 36 606.416992188 l 1
 36 699.641601562 l 1
EndSplineSet
Validated: 1
EndChar

StartChar: u
Encoding: 117 117 84
Width: 565
VWidth: 0
Flags: MW
LayerCount: 2
Fore
SplineSet
48 701.5078125 m 1
 141.224609375 701.5078125 l 1
 141.224609375 161.049804688 l 1
 209.049804688 93.224609375 l 1
 353.665039062 93.224609375 l 1
 421.491210938 161.049804688 l 1
 421.491210938 701.5078125 l 1
 514.71484375 701.5078125 l 1
 514.71484375 122.44921875 l 1
 392.313476562 0 l 1
 170.448242188 0 l 1
 48 122.403320312 l 1
 48 701.5078125 l 1
EndSplineSet
Validated: 1
EndChar

StartChar: w
Encoding: 119 119 85
Width: 566
VWidth: 0
Flags: MW
LayerCount: 2
Fore
SplineSet
49 0 m 1
 49.0498046875 699.641601562 l 1
 142.275390625 699.641601562 l 1
 142.224609375 198.330078125 l 1
 227.666015625 359.2890625 l 1
 336.549804688 359.2890625 l 1
 421.991210938 198.330078125 l 1
 421.991210938 699.641601562 l 1
 515.21484375 699.641601562 l 1
 515.21484375 0 l 1
 421.60546875 0.09375 l 1
 282.108398438 262.958984375 l 1
 142.625976562 0.1279296875 l 1
 49 0 l 1
EndSplineSet
Validated: 1
EndChar

StartChar: v
Encoding: 118 118 86
Width: 559
VWidth: 0
Flags: MW
LayerCount: 2
Fore
SplineSet
44 698.913085938 m 1
 137.227539062 698.913085938 l 1
 137.227539062 359.790039062 l 1
 277.063476562 96.3203125 l 1
 416.900390625 359.790039062 l 1
 416.900390625 698.913085938 l 1
 510.126953125 698.913085938 l 1
 510.126953125 336.57421875 l 1
 331.505859375 0 l 1
 222.622070312 0 l 1
 44 336.57421875 l 1
 44 698.913085938 l 1
EndSplineSet
Validated: 1
EndChar

StartChar: x
Encoding: 120 120 87
Width: 564
VWidth: 0
Flags: MW
LayerCount: 2
Fore
SplineSet
48 698.50390625 m 1
 141.224609375 698.50390625 l 1
 141.224609375 529.579101562 l 1
 281.060546875 410.499023438 l 1
 420.8984375 529.579101562 l 1
 420.8984375 698.50390625 l 1
 514.123046875 698.50390625 l 1
 514.123046875 486.517578125 l 1
 352.892578125 349.274414062 l 1
 514.123046875 211.986328125 l 1
 514.123046875 0 l 1
 420.8984375 0 l 1
 420.8984375 168.924804688 l 1
 281.060546875 288.004882812 l 1
 141.224609375 168.924804688 l 1
 141.224609375 0 l 1
 48 0 l 1
 48 211.986328125 l 1
 209.23046875 349.274414062 l 1
 48 486.517578125 l 1
 48 698.50390625 l 1
EndSplineSet
Validated: 1
EndChar

StartChar: y
Encoding: 121 121 88
Width: 555
VWidth: 0
Flags: MW
LayerCount: 2
Fore
SplineSet
43 699.186523438 m 1
 136.221679688 699.186523438 l 1
 136.221679688 527.985351562 l 1
 276.059570312 387.693359375 l 1
 415.896484375 527.985351562 l 1
 415.896484375 699.186523438 l 1
 509.12109375 699.186523438 l 1
 509.12109375 489.475585938 l 1
 322.671875 302.389648438 l 1
 322.721679688 0 l 1
 229.497070312 0 l 1
 229.447265625 302.34375 l 1
 43 489.475585938 l 1
 43 699.186523438 l 1
EndSplineSet
Validated: 1
EndChar

StartChar: z
Encoding: 122 122 89
Width: 549
VWidth: 0
Flags: MW
LayerCount: 2
Fore
SplineSet
40.00390625 701.970703125 m 1
 506.125 701.962890625 l 1
 505.805664062 608.73828125 l 1
 153.1171875 93.224609375 l 1
 506.125 93.224609375 l 1
 506.125 0 l 1
 40 0 l 1
 40 92.9990234375 l 1
 40 93.232421875 l 1
 40.140625 93.232421875 l 1
 392.874023438 608.745117188 l 1
 40.00390625 608.745117188 l 1
 40.00390625 701.970703125 l 1
EndSplineSet
Validated: 1
EndChar

StartChar: braceleft
Encoding: 123 123 90
Width: 354
VWidth: 0
Flags: MW
LayerCount: 2
Fore
SplineSet
256.135742188 697.95703125 m 1
 256.137695312 697.95703125 l 1
 322.05078125 632.044921875 l 1
 236.928710938 546.921875 l 1
 236.928710938 151.03515625 l 1
 322.05078125 65.9130859375 l 1
 256.137695312 0 l 1
 143.703125 112.434570312 l 1
 143.703125 302.388671875 l 1
 35.046875 302.341796875 l 1
 35 395.56640625 l 1
 143.702148438 395.61328125 l 1
 143.702148438 585.568359375 l 1
 256.135742188 697.95703125 l 1
EndSplineSet
Validated: 1
EndChar

StartChar: bar
Encoding: 124 124 91
Width: 193
VWidth: 0
Flags: MW
LayerCount: 2
Fore
SplineSet
144.224609375 798.041015625 m 1
 144.271484375 -99.4697265625 l 1
 51.046875 -99.4697265625 l 1
 51 797.99609375 l 1
 144.224609375 798.041015625 l 1
EndSplineSet
Validated: 1
EndChar

StartChar: braceright
Encoding: 125 125 92
Width: 353
VWidth: 0
Flags: MW
LayerCount: 2
Fore
SplineSet
96.9150390625 697.95703125 m 1
 209.348632812 585.568359375 l 1
 209.348632812 395.61328125 l 1
 318.05078125 395.56640625 l 1
 318.00390625 302.341796875 l 1
 209.34765625 302.388671875 l 1
 209.34765625 112.434570312 l 1
 96.9130859375 0 l 1
 31 65.9130859375 l 1
 116.122070312 151.03515625 l 1
 116.122070312 546.921875 l 1
 31 632.044921875 l 1
 96.9130859375 697.95703125 l 1
 96.9150390625 697.95703125 l 1
EndSplineSet
Validated: 1
EndChar

StartChar: asciitilde
Encoding: 126 126 93
Width: 668
VWidth: 0
Flags: MW
LayerCount: 2
Fore
SplineSet
165.8671875 448.37109375 m 1
 476.084960938 354.963867188 l 1
 564.940429688 443.91015625 l 1
 630.8984375 377.997070312 l 1
 502.623046875 249.630859375 l 1
 192.041015625 343.083984375 l 1
 102.59375 254.501953125 l 1
 37 320.733398438 l 1
 165.8671875 448.37109375 l 1
EndSplineSet
Validated: 1
EndChar
